<svg width="80" height="80" viewBox="0 0 80 80" fill="none" xmlns="http://www.w3.org/2000/svg">
<path d="M8.04901 54.4033C4.06807 51.7656 3.24696 46.1415 6.29983 42.4225L36.0398 6.1934C38.7786 2.85699 43.6053 2.35725 46.9384 5.06499L77.0161 29.4992C80.2122 32.0957 80.9456 36.7675 78.7058 40.2626L55.5704 76.3625C53.1975 80.0651 48.3592 81.1122 44.7312 78.7083L8.04901 54.4033Z" fill="#BBA118"/>
<path d="M3.61312 51.5353C-0.380532 48.9008 -1.20685 43.264 1.8548 39.5405L32.0103 2.86668C34.7479 -0.462757 39.5663 -0.962382 42.8977 1.73774L73.0019 26.1371C76.2082 28.7357 76.9418 33.4206 74.6903 36.9191L51.1868 73.4401C48.8137 77.1277 43.9919 78.1715 40.3694 75.7818L3.61312 51.5353Z" fill="#F4D322"/>
<path d="M50.2402 38.1831C50.2402 39.3835 49.8166 40.4183 48.9695 41.2876C48.1628 42.1154 47.1745 42.5294 46.0047 42.5294H41.7691V46.8756H36.9285V42.5294C36.9285 41.329 37.3319 40.3148 38.1387 39.487C38.9858 38.6177 39.9942 38.1831 41.164 38.1831H45.3996V29.4907H33.9031V33.8369H29.0625V29.4907C29.0625 28.2903 29.4659 27.2762 30.2727 26.4483C31.1198 25.5791 32.1282 25.1444 33.298 25.1444H46.0047C47.1745 25.1444 48.1628 25.5791 48.9695 26.4483C49.8166 27.2762 50.2402 28.2903 50.2402 29.4907V38.1831ZM42.3742 55.5681H36.9285V50.6009H42.3742V55.5681Z" fill="#F9F9F9"/>
</svg>
